<?xml version="1.0" encoding="UTF-8"?>
<svg id="Layer_1" data-name="Layer 1" xmlns="http://www.w3.org/2000/svg" viewBox="0 0 783.13 902.15">
  <defs>
    <style>
      .cls-1 {
        stroke-width: 0px;
      }
    </style>
  </defs>
  <path class="cls-1" d="m386.75.46c3.19-.62,6.48-.62,9.68,0l205.87,41.17c11.53,2.26,19.87,12.45,19.87,24.19s-8.34,21.92-19.87,24.19l-78.95,15.85v58.77c0,72.77-58.98,131.75-131.75,131.75s-131.75-58.98-131.75-131.75v-58.77l-49.41-9.88v67.01l16.16,80.7c.93,4.84-.31,9.88-3.4,13.69s-7.82,6.07-12.76,6.07h-32.94c-4.94,0-9.57-2.16-12.76-6.07s-4.43-8.85-3.4-13.69l16.16-80.7v-73.91c-9.78-3.4-16.47-12.66-16.47-23.26,0-11.73,8.34-21.92,19.87-24.19L386.75.46Zm-110.55,336.8c10.81-3.5,22.44.41,30.26,8.75l73.08,77.71c6.48,6.9,17.5,6.9,23.98,0l73.08-77.71c7.82-8.34,19.45-12.25,30.26-8.75,66.91,21.51,115.29,84.1,115.29,158.11,0,17.5-14.2,31.6-31.6,31.6H192.62c-17.4,0-31.6-14.2-31.6-31.6,0-74.01,48.38-136.59,115.18-158.11h0Z"/>
  <path class="cls-1" d="m97.88,424.27c0-25.89-21.9-46.85-48.94-46.85S0,398.39,0,424.27v259.44c0,29.87,12.36,58.45,34.38,79.53l122.22,117.01c14.68,14.06,34.62,21.9,55.42,21.9h81.6c32.42,0,58.73-25.18,58.73-56.22v-92.41c0-34.79-14.44-68.17-40.13-92.76l-30.95-29.63h0l-18.6-17.8-39.15-37.48c-15.29-14.64-40.13-14.64-55.42,0s-15.29,38.42,0,53.06l39.15,37.48,18.6,17.8c13.46,12.88,11.26,34.2-4.53,44.27-11.87,7.61-27.77,6.09-37.93-3.63l-62.64-59.85c-14.68-14.06-22.88-33.15-22.88-53.06v-187.64Zm587.25,0v187.64c0,19.91-8.2,39-22.88,53.06l-62.52,59.85c-10.15,9.72-26.06,11.24-37.93,3.63-15.78-10.07-17.98-31.51-4.53-44.27l18.6-17.8,39.15-37.48c15.29-14.64,15.29-38.42,0-53.06-15.29-14.64-40.13-14.64-55.42,0l-39.15,37.48-18.6,17.8h0l-30.95,29.63c-25.69,24.6-40.13,57.98-40.13,92.76v92.41c0,31.04,26.3,56.22,58.73,56.22h81.6c20.8,0,40.74-7.85,55.42-21.9l122.22-117.01c22.02-21.08,34.38-49.66,34.38-79.53v-259.44c0-25.89-21.9-46.85-48.94-46.85s-48.94,20.97-48.94,46.85h-.12Z"/>
</svg>